<svg width="167" height="160" viewBox="0 0 167 160" fill="none" xmlns="http://www.w3.org/2000/svg">
<rect width="56.4541" height="56.4541" rx="7" transform="matrix(-1 0 0 1 166.563 0)" fill="#C7D2FE"/>
<path fill-rule="evenodd" clip-rule="evenodd" d="M104.51 10.2644C104.51 10.2644 104.51 10.2644 104.51 10.2644V5.1322C104.51 2.29776 102.212 0 99.378 0H85.3933C85.3866 0 85.3811 0.00548769 85.3811 0.0122571V0.0122571C85.3811 0.0191399 85.3754 0.0246733 85.3685 0.0245117C84.6749 0.00821631 83.9792 2.09808e-05 83.2815 2.09808e-05C37.2864 2.09808e-05 0 35.6153 0 79.549C0 123.483 37.2864 159.098 83.2815 159.098C129.277 159.098 166.563 123.483 166.563 79.549C166.563 79.4713 166.563 79.3936 166.563 79.316C166.563 79.3159 166.563 79.3158 166.563 79.3158V79.3158C166.563 79.3158 166.563 79.3157 166.563 79.3156V64.0738C166.563 62.9577 165.658 62.053 164.542 62.053V62.053H156.299H112.886C111.104 62.053 109.392 62.7435 108.108 63.9795V63.9795C105.849 66.1552 105.452 69.5615 106.34 72.5698C106.971 74.7085 107.309 76.9726 107.309 79.3158C107.309 92.4573 96.6562 103.111 83.5148 103.111C70.3733 103.111 59.72 92.4573 59.72 79.3158C59.72 66.1744 70.3733 55.5211 83.5148 55.5211C87.8254 55.5211 91.8684 56.6674 95.3554 58.6717C97.8298 60.094 101.064 60.0437 103.041 57.9848V57.9848C103.984 57.0027 104.51 55.694 104.51 54.3325V10.2644C104.51 10.2644 104.51 10.2644 104.51 10.2644V10.2644Z" fill="#4F46E5"/>
</svg>
